<svg width="20" height="20" viewBox="0 0 20 20" fill="none" xmlns="http://www.w3.org/2000/svg">
<path d="M9.05876 13.925L3.06376 7.0725C2.35626 6.26625 2.93126 5 4.00501 5H15.995C16.2353 4.99979 16.4706 5.06886 16.6727 5.19893C16.8747 5.32899 17.035 5.51455 17.1343 5.73337C17.2336 5.95219 17.2678 6.195 17.2327 6.43272C17.1975 6.67045 17.0946 6.89301 16.9363 7.07375L10.9413 13.9237C10.8239 14.058 10.6792 14.1656 10.5169 14.2393C10.3546 14.3131 10.1783 14.3512 10 14.3512C9.82171 14.3512 9.64547 14.3131 9.48313 14.2393C9.32078 14.1656 9.17609 14.058 9.05876 13.9237V13.925Z" fill="white" fill-opacity="0.5"/>
</svg>
