<svg width="39" height="19" viewBox="0 0 39 19" fill="none" xmlns="http://www.w3.org/2000/svg">
<path d="M8.775 18.225C7.075 18.225 5.58333 17.8583 4.3 17.125C3.03333 16.3917 2.05833 15.3417 1.375 13.975C0.691667 12.6083 0.35 11.0083 0.35 9.175C0.35 7.34167 0.691667 5.75 1.375 4.4C2.05833 3.03333 3.03333 1.98333 4.3 1.25C5.58333 0.516666 7.075 0.149999 8.775 0.149999C9.875 0.149999 10.9083 0.316666 11.875 0.65C12.8417 0.966666 13.7 1.43333 14.45 2.05C14.6667 2.21667 14.8167 2.39167 14.9 2.575C14.9833 2.75833 15.025 2.98333 15.025 3.25C15.025 3.61667 14.925 3.925 14.725 4.175C14.525 4.425 14.2833 4.55 14 4.55C13.6667 4.55 13.325 4.43333 12.975 4.2C12.2583 3.66667 11.5917 3.3 10.975 3.1C10.3583 2.88333 9.675 2.775 8.925 2.775C7.19167 2.775 5.875 3.31667 4.975 4.4C4.09167 5.48333 3.65 7.075 3.65 9.175C3.65 11.2917 4.09167 12.8917 4.975 13.975C5.875 15.0583 7.19167 15.6 8.925 15.6C9.64167 15.6 10.3 15.4917 10.9 15.275C11.5167 15.0583 12.2083 14.6917 12.975 14.175C13.1417 14.075 13.3083 13.9917 13.475 13.925C13.6417 13.8583 13.8167 13.825 14 13.825C14.2833 13.825 14.525 13.95 14.725 14.2C14.925 14.45 15.025 14.7583 15.025 15.125C15.025 15.375 14.9833 15.6 14.9 15.8C14.8167 15.9833 14.6667 16.1583 14.45 16.325C13.7 16.9417 12.8417 17.4167 11.875 17.75C10.9083 18.0667 9.875 18.225 8.775 18.225Z" fill="#FFC04A"/>
<path d="M19.1184 18.15C18.6684 18.15 18.2934 18.025 17.9934 17.775C17.71 17.5083 17.5684 17.1333 17.5684 16.65V1.725C17.5684 1.24167 17.71 0.874999 17.9934 0.624999C18.2934 0.374999 18.6684 0.249999 19.1184 0.249999C19.5684 0.249999 19.9434 0.374999 20.2434 0.624999C20.5434 0.874999 20.6934 1.24167 20.6934 1.725V16.65C20.6934 17.1333 20.5434 17.5083 20.2434 17.775C19.9434 18.025 19.5684 18.15 19.1184 18.15Z" fill="white"/>
<path d="M37.891 15.7C38.1577 16.0167 38.291 16.3333 38.291 16.65C38.291 17.05 38.1327 17.4 37.816 17.7C37.516 18 37.166 18.15 36.766 18.15C36.3493 18.15 35.9827 17.9667 35.666 17.6L30.591 11.3L25.491 17.6C25.191 17.95 24.8327 18.125 24.416 18.125C24.016 18.125 23.6577 17.9833 23.341 17.7C23.041 17.4 22.891 17.05 22.891 16.65C22.891 16.3167 23.016 16 23.266 15.7L28.716 9.05L23.491 2.675C23.241 2.40833 23.116 2.09167 23.116 1.725C23.116 1.325 23.266 0.983333 23.566 0.699999C23.866 0.399999 24.216 0.249999 24.616 0.249999C25.0327 0.249999 25.3993 0.433333 25.716 0.799999L30.591 6.825L35.466 0.799999C35.766 0.433333 36.1243 0.249999 36.541 0.249999C36.941 0.249999 37.291 0.399999 37.591 0.699999C37.9077 0.983333 38.066 1.325 38.066 1.725C38.066 2.09167 37.941 2.40833 37.691 2.675L32.466 9.05L37.891 15.7Z" fill="#6F6FC8"/>
</svg>
